<svg aria-roledescription="flowchart-v2" role="graphics-document document" viewBox="-8 -8 1061.6875 855.3585815429688" style="max-width: 1061.69px; background-color: white;" xmlns:xlink="http://www.w3.org/1999/xlink" xmlns="http://www.w3.org/2000/svg" width="100%" id="my-svg"><style>#my-svg{font-family:"trebuchet ms",verdana,arial,sans-serif;font-size:16px;fill:#333;}#my-svg .error-icon{fill:#552222;}#my-svg .error-text{fill:#552222;stroke:#552222;}#my-svg .edge-thickness-normal{stroke-width:2px;}#my-svg .edge-thickness-thick{stroke-width:3.5px;}#my-svg .edge-pattern-solid{stroke-dasharray:0;}#my-svg .edge-pattern-dashed{stroke-dasharray:3;}#my-svg .edge-pattern-dotted{stroke-dasharray:2;}#my-svg .marker{fill:#333333;stroke:#333333;}#my-svg .marker.cross{stroke:#333333;}#my-svg svg{font-family:"trebuchet ms",verdana,arial,sans-serif;font-size:16px;}#my-svg .label{font-family:"trebuchet ms",verdana,arial,sans-serif;color:#333;}#my-svg .cluster-label text{fill:#333;}#my-svg .cluster-label span,#my-svg p{color:#333;}#my-svg .label text,#my-svg span,#my-svg p{fill:#333;color:#333;}#my-svg .node rect,#my-svg .node circle,#my-svg .node ellipse,#my-svg .node polygon,#my-svg .node path{fill:#ECECFF;stroke:#9370DB;stroke-width:1px;}#my-svg .flowchart-label text{text-anchor:middle;}#my-svg .node .katex path{fill:#000;stroke:#000;stroke-width:1px;}#my-svg .node .label{text-align:center;}#my-svg .node.clickable{cursor:pointer;}#my-svg .arrowheadPath{fill:#333333;}#my-svg .edgePath .path{stroke:#333333;stroke-width:2.0px;}#my-svg .flowchart-link{stroke:#333333;fill:none;}#my-svg .edgeLabel{background-color:#e8e8e8;text-align:center;}#my-svg .edgeLabel rect{opacity:0.5;background-color:#e8e8e8;fill:#e8e8e8;}#my-svg .labelBkg{background-color:rgba(232, 232, 232, 0.5);}#my-svg .cluster rect{fill:#ffffde;stroke:#aaaa33;stroke-width:1px;}#my-svg .cluster text{fill:#333;}#my-svg .cluster span,#my-svg p{color:#333;}#my-svg div.mermaidTooltip{position:absolute;text-align:center;max-width:200px;padding:2px;font-family:"trebuchet ms",verdana,arial,sans-serif;font-size:12px;background:hsl(80, 100%, 96.2745098039%);border:1px solid #aaaa33;border-radius:2px;pointer-events:none;z-index:100;}#my-svg .flowchartTitleText{text-anchor:middle;font-size:18px;fill:#333;}#my-svg :root{--mermaid-font-family:"trebuchet ms",verdana,arial,sans-serif;}</style><g><marker orient="auto" markerHeight="12" markerWidth="12" markerUnits="userSpaceOnUse" refY="5" refX="6" viewBox="0 0 10 10" class="marker flowchart" id="my-svg_flowchart-pointEnd"><path style="stroke-width: 1; stroke-dasharray: 1, 0;" class="arrowMarkerPath" d="M 0 0 L 10 5 L 0 10 z"/></marker><marker orient="auto" markerHeight="12" markerWidth="12" markerUnits="userSpaceOnUse" refY="5" refX="4.5" viewBox="0 0 10 10" class="marker flowchart" id="my-svg_flowchart-pointStart"><path style="stroke-width: 1; stroke-dasharray: 1, 0;" class="arrowMarkerPath" d="M 0 5 L 10 10 L 10 0 z"/></marker><marker orient="auto" markerHeight="11" markerWidth="11" markerUnits="userSpaceOnUse" refY="5" refX="11" viewBox="0 0 10 10" class="marker flowchart" id="my-svg_flowchart-circleEnd"><circle style="stroke-width: 1; stroke-dasharray: 1, 0;" class="arrowMarkerPath" r="5" cy="5" cx="5"/></marker><marker orient="auto" markerHeight="11" markerWidth="11" markerUnits="userSpaceOnUse" refY="5" refX="-1" viewBox="0 0 10 10" class="marker flowchart" id="my-svg_flowchart-circleStart"><circle style="stroke-width: 1; stroke-dasharray: 1, 0;" class="arrowMarkerPath" r="5" cy="5" cx="5"/></marker><marker orient="auto" markerHeight="11" markerWidth="11" markerUnits="userSpaceOnUse" refY="5.2" refX="12" viewBox="0 0 11 11" class="marker cross flowchart" id="my-svg_flowchart-crossEnd"><path style="stroke-width: 2; stroke-dasharray: 1, 0;" class="arrowMarkerPath" d="M 1,1 l 9,9 M 10,1 l -9,9"/></marker><marker orient="auto" markerHeight="11" markerWidth="11" markerUnits="userSpaceOnUse" refY="5.2" refX="-1" viewBox="0 0 11 11" class="marker cross flowchart" id="my-svg_flowchart-crossStart"><path style="stroke-width: 2; stroke-dasharray: 1, 0;" class="arrowMarkerPath" d="M 1,1 l 9,9 M 10,1 l -9,9"/></marker><g class="root"><g class="clusters"/><g class="edgePaths"><path marker-end="url(#my-svg_flowchart-pointEnd)" style="fill:none;" class="edge-thickness-normal edge-pattern-solid flowchart-link LS-U LE-SHIM" id="L-U-SHIM-0" d="M535.078,33L535.078,38.667C535.078,44.333,535.078,55.667,535.149,66.2C535.219,76.734,535.36,86.467,535.431,91.334L535.501,96.201"/><path marker-end="url(#my-svg_flowchart-pointEnd)" style="fill:none;" class="edge-thickness-normal edge-pattern-solid flowchart-link LS-SHIM LE-ADAPTER" id="L-SHIM-ADAPTER-0" d="M535.578,354.031L535.495,359.615C535.411,365.198,535.245,376.365,535.161,406.398C535.078,436.431,535.078,485.331,535.078,509.781L535.078,534.231"/><path marker-end="url(#my-svg_flowchart-pointEnd)" style="fill:none;" class="edge-thickness-normal edge-pattern-solid flowchart-link LS-SHIM LE-CLAUDE" id="L-SHIM-CLAUDE-0" d="M605.428,284.181L626.775,301.406C648.121,318.631,690.815,353.081,712.161,394.756C733.508,436.431,733.508,485.331,733.508,509.781L733.508,534.231"/><path marker-end="url(#my-svg_flowchart-pointEnd)" marker-start="url(#my-svg_flowchart-pointStart)" style="fill:none;" class="edge-thickness-normal edge-pattern-solid flowchart-link LS-ADAPTER LE-CODEX" id="L-ADAPTER-CODEX-0" d="M486.295,574.399L419.839,599.421C353.382,624.443,220.468,674.487,154.011,704.631C87.555,734.776,87.555,745.02,87.555,750.142L87.555,755.264"/><path marker-end="url(#my-svg_flowchart-pointEnd)" style="fill:none;" class="edge-thickness-normal edge-pattern-solid flowchart-link LS-ADAPTER LE-GEMINI" id="L-ADAPTER-GEMINI-0" d="M513.516,572.531L480.41,597.865C447.305,623.198,381.094,673.865,347.988,704.282C314.883,734.7,314.883,744.868,314.883,749.952L314.883,755.037"/><path marker-end="url(#my-svg_flowchart-pointEnd)" style="fill:none;" class="edge-thickness-normal edge-pattern-solid flowchart-link LS-ADAPTER LE-KIMI" id="L-ADAPTER-KIMI-0" d="M535.078,572.531L535.078,597.865C535.078,623.198,535.078,673.865,535.078,704.45C535.078,735.035,535.078,745.54,535.078,750.792L535.078,756.044"/><path marker-end="url(#my-svg_flowchart-pointEnd)" style="fill:none;stroke-width:2px;stroke-dasharray:3;" class="edge-thickness-normal edge-pattern-dotted flowchart-link LS-ADAPTER LE-CFG" id="L-ADAPTER-CFG-0" d="M558.622,572.531L594.769,597.865C630.917,623.198,703.212,673.865,739.36,703.981C775.508,734.098,775.508,743.665,775.508,748.448L775.508,753.231"/><path marker-end="url(#my-svg_flowchart-pointEnd)" style="fill:none;stroke-width:2px;stroke-dasharray:3;" class="edge-thickness-normal edge-pattern-dotted flowchart-link LS-ADAPTER LE-INBOX" id="L-ADAPTER-INBOX-0" d="M579.684,572.531L648.17,597.865C716.657,623.198,853.629,673.865,922.115,705.039C990.602,736.213,990.602,747.895,990.602,753.736L990.602,759.577"/><path marker-end="url(#my-svg_flowchart-pointEnd)" style="fill:none;stroke-width:2px;stroke-dasharray:3;" class="edge-thickness-normal edge-pattern-dotted flowchart-link LS-SHIM LE-NEXT" id="L-SHIM-NEXT-0" d="M408.813,299.806L383.363,314.427C357.914,329.048,307.016,358.29,281.566,377.694C256.117,397.098,256.117,406.665,256.117,411.448L256.117,416.231"/></g><g class="edgeLabels"><g transform="translate(535.078125, 67)" class="edgeLabel"><g transform="translate(-71.8984375, -9)" class="label"><foreignObject height="18" width="143.796875"><div style="display: inline-block; white-space: nowrap;" xmlns="http://www.w3.org/1999/xhtml"><span class="edgeLabel">Agent Teams spawn</span></div></foreignObject></g></g><g transform="translate(535.078125, 387.53125)" class="edgeLabel"><g transform="translate(-144.4921875, -9)" class="label"><foreignObject height="18" width="288.984375"><div style="display: inline-block; white-space: nowrap;" xmlns="http://www.w3.org/1999/xhtml"><span class="edgeLabel">name matches codex-* / gemini-* / kimi-*</span></div></foreignObject></g></g><g transform="translate(733.5078125, 387.53125)" class="edgeLabel"><g transform="translate(-24.0234375, -9)" class="label"><foreignObject height="18" width="48.046875"><div style="display: inline-block; white-space: nowrap;" xmlns="http://www.w3.org/1999/xhtml"><span class="edgeLabel">default</span></div></foreignObject></g></g><g transform="translate(87.5546875, 724.53125)" class="edgeLabel"><g transform="translate(-40.890625, -9)" class="label"><foreignObject height="18" width="81.78125"><div style="display: inline-block; white-space: nowrap;" xmlns="http://www.w3.org/1999/xhtml"><span class="edgeLabel">JSON-RPC</span></div></foreignObject></g></g><g transform="translate(314.8828125, 724.53125)" class="edgeLabel"><g transform="translate(-41.7890625, -9)" class="label"><foreignObject height="18" width="83.578125"><div style="display: inline-block; white-space: nowrap;" xmlns="http://www.w3.org/1999/xhtml"><span class="edgeLabel">stream-json</span></div></foreignObject></g></g><g transform="translate(535.078125, 724.53125)" class="edgeLabel"><g transform="translate(-41.7890625, -9)" class="label"><foreignObject height="18" width="83.578125"><div style="display: inline-block; white-space: nowrap;" xmlns="http://www.w3.org/1999/xhtml"><span class="edgeLabel">stream-json</span></div></foreignObject></g></g><g transform="translate(775.5078125, 724.53125)" class="edgeLabel"><g transform="translate(-39.125, -9)" class="label"><foreignObject height="18" width="78.25"><div style="display: inline-block; white-space: nowrap;" xmlns="http://www.w3.org/1999/xhtml"><span class="edgeLabel">registers in</span></div></foreignObject></g></g><g transform="translate(990.6015625, 724.53125)" class="edgeLabel"><g transform="translate(-43.125, -9)" class="label"><foreignObject height="18" width="86.25"><div style="display: inline-block; white-space: nowrap;" xmlns="http://www.w3.org/1999/xhtml"><span class="edgeLabel">reads/writes</span></div></foreignObject></g></g><g transform="translate(256.1171875, 387.53125)" class="edgeLabel"><g transform="translate(-55.15625, -9)" class="label"><foreignObject height="18" width="110.3125"><div style="display: inline-block; white-space: nowrap;" xmlns="http://www.w3.org/1999/xhtml"><span class="edgeLabel">routing planned</span></div></foreignObject></g></g></g><g class="nodes"><g transform="translate(154.75, 413.53125)" class="root"><g class="clusters"><g id="NEXT" class="cluster default flowchart-label"><rect height="269" width="270.359375" y="8" x="-33.3125" ry="0" rx="0" style="fill:#f5f5f5;stroke:#9ca3af;stroke-dasharray: 5 5;"/><g transform="translate(-33.3125, 8)" class="cluster-label"><foreignObject height="18" width="270.359375"><div style="display: inline-block; white-space: nowrap;" xmlns="http://www.w3.org/1999/xhtml"><span class="nodeLabel">Coming next on the same architecture</span></div></foreignObject></g></g></g><g class="edgePaths"/><g class="edgeLabels"/><g class="nodes"><g transform="translate(101.8671875, 59.5)" data-id="GLM" data-node="true" id="flowchart-GLM-17" class="node default default flowchart-label"><rect height="33" width="85.25" y="-16.5" x="-42.625" ry="0" rx="0" style="fill:#ffffff;stroke:#9ca3af;stroke-dasharray: 3 3;" class="basic label-container"/><g transform="translate(-35.125, -9)" style="" class="label"><rect/><foreignObject height="18" width="70.25"><div style="display: inline-block; white-space: nowrap;" xmlns="http://www.w3.org/1999/xhtml"><span class="nodeLabel">glm · next</span></div></foreignObject></g></g><g transform="translate(101.8671875, 142.5)" data-id="DS" data-node="true" id="flowchart-DS-18" class="node default default flowchart-label"><rect height="33" width="128.859375" y="-16.5" x="-64.4296875" ry="0" rx="0" style="fill:#ffffff;stroke:#9ca3af;stroke-dasharray: 3 3;" class="basic label-container"/><g transform="translate(-56.9296875, -9)" style="" class="label"><rect/><foreignObject height="18" width="113.859375"><div style="display: inline-block; white-space: nowrap;" xmlns="http://www.w3.org/1999/xhtml"><span class="nodeLabel">deepseek · next</span></div></foreignObject></g></g><g transform="translate(101.8671875, 225.5)" data-id="API" data-node="true" id="flowchart-API-19" class="node default default flowchart-label"><rect height="33" width="137.734375" y="-16.5" x="-68.8671875" ry="0" rx="0" style="fill:#ffffff;stroke:#9ca3af;stroke-dasharray: 3 3;" class="basic label-container"/><g transform="translate(-61.3671875, -9)" style="" class="label"><rect/><foreignObject height="18" width="122.734375"><div style="display: inline-block; white-space: nowrap;" xmlns="http://www.w3.org/1999/xhtml"><span class="nodeLabel">generic api · next</span></div></foreignObject></g></g></g></g><g transform="translate(535.078125, 16.5)" data-id="U" data-node="true" id="flowchart-U-0" class="node default default flowchart-label"><rect height="33" width="209.21875" y="-16.5" x="-104.609375" ry="0" rx="0" style="fill:#e5e7eb;stroke:#0f172a;stroke-width:1px;" class="basic label-container"/><g transform="translate(-97.109375, -9)" style="" class="label"><rect/><foreignObject height="18" width="194.21875"><div style="display: inline-block; white-space: nowrap;" xmlns="http://www.w3.org/1999/xhtml"><span class="nodeLabel">You — Claude Code leader</span></div></foreignObject></g></g><g transform="translate(535.078125, 227.265625)" data-id="SHIM" data-node="true" id="flowchart-SHIM-2" class="node default default flowchart-label"><polygon style="fill:#f472b6;stroke:#0f172a;stroke-width:2px;" transform="translate(-126.265625,126.265625)" class="label-container" points="126.265625,0 252.53125,-126.265625 126.265625,-252.53125 0,-126.265625"/><g transform="translate(-102.265625, -9)" style="color:#0f172a;" class="label"><rect/><foreignObject height="18" width="204.53125"><div xmlns="http://www.w3.org/1999/xhtml" style="color: rgb(15, 23, 42); display: inline-block; white-space: nowrap;"><span style="color:#0f172a;" class="nodeLabel">claude-anyteam-spawn-shim</span></div></foreignObject></g></g><g transform="translate(535.078125, 556.03125)" data-id="ADAPTER" data-node="true" id="flowchart-ADAPTER-4" class="node default default flowchart-label"><rect height="33" width="187.5625" y="-16.5" x="-93.78125" ry="0" rx="0" style="fill:#22d3ee;stroke:#0f172a;stroke-width:2px;" class="basic label-container"/><g transform="translate(-86.28125, -9)" style="color:#0f172a;" class="label"><rect/><foreignObject height="18" width="172.5625"><div xmlns="http://www.w3.org/1999/xhtml" style="color: rgb(15, 23, 42); display: inline-block; white-space: nowrap;"><span style="color:#0f172a;" class="nodeLabel">claude-anyteam adapter</span></div></foreignObject></g></g><g transform="translate(733.5078125, 556.03125)" data-id="CLAUDE" data-node="true" id="flowchart-CLAUDE-6" class="node default default flowchart-label"><rect height="33" width="109.296875" y="-16.5" x="-54.6484375" ry="0" rx="0" style="fill:#fef3c7;stroke:#92400e;" class="basic label-container"/><g transform="translate(-47.1484375, -9)" style="" class="label"><rect/><foreignObject height="18" width="94.296875"><div style="display: inline-block; white-space: nowrap;" xmlns="http://www.w3.org/1999/xhtml"><span class="nodeLabel">native claude</span></div></foreignObject></g></g><g transform="translate(87.5546875, 798.9449081420898)" data-id="CODEX" data-node="true" id="flowchart-CODEX-8" class="node default default flowchart-label"><path transform="translate(-87.5546875,-38.380694538449525)" d="M 0,14.587129692299683 a 87.5546875,14.587129692299683 0,0,0 175.109375 0 a 87.5546875,14.587129692299683 0,0,0 -175.109375 0 l 0,47.58712969229968 a 87.5546875,14.587129692299683 0,0,0 175.109375 0 l 0,-47.58712969229968" style="fill:#10a37f;stroke:#0f172a;stroke-width:2px;"/><g transform="translate(-80.0546875, -9)" style="color:#ffffff;" class="label"><rect/><foreignObject height="18" width="160.109375"><div xmlns="http://www.w3.org/1999/xhtml" style="color: rgb(255, 255, 255); display: inline-block; white-space: nowrap;"><span style="color:#ffffff;" class="nodeLabel">codex · shipping today</span></div></foreignObject></g></g><g transform="translate(314.8828125, 798.9449081420898)" data-id="GEMINI" data-node="true" id="flowchart-GEMINI-10" class="node default default flowchart-label"><path transform="translate(-89.7734375,-38.60828074495922)" d="M 0,14.738853829972808 a 89.7734375,14.738853829972808 0,0,0 179.546875 0 a 89.7734375,14.738853829972808 0,0,0 -179.546875 0 l 0,47.73885382997281 a 89.7734375,14.738853829972808 0,0,0 179.546875 0 l 0,-47.73885382997281" style="fill:#10a37f;stroke:#0f172a;stroke-width:2px;"/><g transform="translate(-82.2734375, -9)" style="color:#ffffff;" class="label"><rect/><foreignObject height="18" width="164.546875"><div xmlns="http://www.w3.org/1999/xhtml" style="color: rgb(255, 255, 255); display: inline-block; white-space: nowrap;"><span style="color:#ffffff;" class="nodeLabel">gemini · shipping today</span></div></foreignObject></g></g><g transform="translate(535.078125, 798.9449081420898)" data-id="KIMI" data-node="true" id="flowchart-KIMI-12" class="node default default flowchart-label"><path transform="translate(-80.421875,-37.601180714988516)" d="M 0,14.067453809992347 a 80.421875,14.067453809992347 0,0,0 160.84375 0 a 80.421875,14.067453809992347 0,0,0 -160.84375 0 l 0,47.067453809992344 a 80.421875,14.067453809992347 0,0,0 160.84375 0 l 0,-47.067453809992344" style="fill:#10a37f;stroke:#0f172a;stroke-width:2px;"/><g transform="translate(-72.921875, -9)" style="color:#ffffff;" class="label"><rect/><foreignObject height="18" width="145.84375"><div xmlns="http://www.w3.org/1999/xhtml" style="color: rgb(255, 255, 255); display: inline-block; white-space: nowrap;"><span style="color:#ffffff;" class="nodeLabel">kimi · shipping today</span></div></foreignObject></g></g><g transform="translate(775.5078125, 798.9449081420898)" data-id="CFG" data-node="true" id="flowchart-CFG-14" class="node default default flowchart-label"><path transform="translate(-110.0078125,-40.413658801684704)" d="M 0,15.942439201123138 a 110.0078125,15.942439201123138 0,0,0 220.015625 0 a 110.0078125,15.942439201123138 0,0,0 -220.015625 0 l 0,48.942439201123136 a 110.0078125,15.942439201123138 0,0,0 220.015625 0 l 0,-48.942439201123136" style=""/><g transform="translate(-102.5078125, -9)" style="" class="label"><rect/><foreignObject height="18" width="205.015625"><div style="display: inline-block; white-space: nowrap;" xmlns="http://www.w3.org/1999/xhtml"><span class="nodeLabel">~/.claude/teams/*/config.json</span></div></foreignObject></g></g><g transform="translate(990.6015625, 798.9449081420898)" data-id="INBOX" data-node="true" id="flowchart-INBOX-16" class="node default default flowchart-label"><path transform="translate(-55.0859375,-34.067769583416386)" d="M 0,11.711846388944258 a 55.0859375,11.711846388944258 0,0,0 110.171875 0 a 55.0859375,11.711846388944258 0,0,0 -110.171875 0 l 0,44.71184638894426 a 55.0859375,11.711846388944258 0,0,0 110.171875 0 l 0,-44.71184638894426" style=""/><g transform="translate(-47.5859375, -9)" style="" class="label"><rect/><foreignObject height="18" width="95.171875"><div style="display: inline-block; white-space: nowrap;" xmlns="http://www.w3.org/1999/xhtml"><span class="nodeLabel">team inboxes</span></div></foreignObject></g></g></g></g></g></svg>